<svg xmlns="http://www.w3.org/2000/svg" width="640" height="240" viewBox="0 0 640 240">
  <defs>
    <linearGradient id="bg" x1="0" y1="0" x2="1" y2="1">
      <stop offset="0%" stop-color="#f97316"/>
      <stop offset="100%" stop-color="#d94f04"/>
    </linearGradient>
  </defs>
  <rect width="640" height="240" fill="url(#bg)"/>
  <circle cx="560" cy="40" r="90" fill="#ffffff" opacity="0.08"/>
  <circle cx="80" cy="210" r="130" fill="#0a1f44" opacity="0.15"/>
  <g transform="translate(120,60)">
    <rect x="0" y="40" width="26" height="70" fill="#0a1f44"/>
    <rect x="26" y="30" width="26" height="80" fill="#0a1f44"/>
    <rect x="52" y="20" width="26" height="90" fill="#0a1f44"/>
    <rect x="78" y="42" width="26" height="68" fill="#0a1f44"/>
    <rect x="-6" y="110" width="116" height="14" fill="#0d0d0d"/>
    <polygon points="-6,40 52,4 110,40" fill="#02122e"/>
    <rect x="60" y="0" width="14" height="30" fill="#ffffff" opacity="0.25"/>
  </g>
  <g transform="translate(420,90)">
    <rect x="0" y="10" width="80" height="6" fill="#0a1f44"/>
    <circle cx="84" cy="13" r="8" fill="#0a1f44"/>
    <rect x="84" y="-8" width="10" height="16" fill="#0a1f44"/>
    <rect x="94" y="0" width="7" height="14" fill="#d8c45e"/>
    <polygon points="8,0 14,8 40,10 44,4 30,-4" fill="#d8c45e"/>
    <rect x="10" y="-10" width="60" height="10" fill="#0a1f44"/>
  </g>
  <text x="320" y="180" text-anchor="middle" font-family="Arial, sans-serif" font-size="30" font-weight="bold" fill="#ffffff">مواد البناء</text>
  <text x="320" y="208" text-anchor="middle" font-family="Arial, sans-serif" font-size="17" fill="#0a1f44">تصفح وقارن أفضل الأسعار</text>
</svg>